<?xml version="1.0" standalone="no"?>
<!DOCTYPE svg PUBLIC "-//W3C//DTD SVG 20010904//EN"
 "http://www.w3.org/TR/2001/REC-SVG-20010904/DTD/svg10.dtd">
<svg version="1.0" xmlns="http://www.w3.org/2000/svg"
 width="359.000000pt" height="359.000000pt" viewBox="0 0 359.000000 359.000000"
 preserveAspectRatio="xMidYMid meet">
<metadata>
Created by potrace 1.14, written by Peter Selinger 2001-2017
</metadata>
<g transform="translate(0.000000,359.000000) scale(0.100000,-0.100000)"
fill="#000000" stroke="none">
<path d="M1707 3413 c-1 -1 -15 -3 -32 -5 -16 -2 -40 -9 -52 -16 -26 -14 -106
-26 -83 -12 8 5 12 11 9 14 -3 3 -32 -10 -63 -29 -63 -38 -76 -42 -76 -22 0 6
-9 -2 -20 -20 -26 -44 -117 -95 -143 -82 -17 10 -17 9 -6 -13 6 -13 8 -20 4
-16 -7 7 -24 -4 -53 -34 -9 -10 -20 -18 -25 -18 -10 0 -25 -15 -55 -58 -12
-17 -18 -32 -12 -32 6 0 8 -4 5 -10 -3 -5 -1 -10 5 -10 7 0 5 -7 -4 -16 -9 -8
-20 -13 -26 -9 -6 3 -7 -1 -4 -9 4 -11 0 -16 -12 -16 -13 -1 -9 -5 11 -14 l30
-13 -37 -7 c-27 -5 -36 -11 -31 -21 3 -10 -1 -15 -15 -15 -26 0 -41 -21 -32
-45 9 -22 2 -74 -12 -91 -7 -10 -4 -140 7 -284 10 -117 25 -208 46 -275 13
-38 23 -72 23 -75 1 -3 11 -16 23 -29 12 -13 25 -37 28 -52 4 -16 11 -31 16
-34 5 -4 9 -26 9 -50 0 -39 13 -65 26 -52 3 2 6 80 8 172 l4 167 32 47 c18 25
34 55 35 66 1 11 3 20 4 20 2 0 4 10 7 23 2 12 -1 22 -7 22 -5 0 -7 5 -4 11
11 16 15 132 5 144 -10 13 -7 62 7 95 16 37 93 110 122 116 14 2 49 17 77 31
37 18 60 24 81 20 18 -3 35 -1 43 6 10 9 14 9 17 0 3 -10 10 -9 26 2 12 7 54
17 92 20 65 6 73 5 108 -19 21 -14 41 -26 45 -26 4 0 20 -7 35 -15 15 -8 45
-17 65 -21 23 -4 63 -28 107 -62 39 -31 71 -56 72 -57 1 0 4 -19 6 -40 4 -37
6 -40 33 -38 16 1 21 -1 12 -3 -23 -7 -24 -34 -2 -34 11 0 15 -6 11 -19 -3
-14 -1 -18 9 -14 9 3 14 -2 14 -16 0 -14 -6 -21 -19 -21 -11 0 -26 -7 -34 -15
-8 -7 -46 -30 -85 -51 -77 -39 -98 -57 -87 -75 9 -14 75 -5 117 17 40 21 88
26 121 13 32 -14 33 -23 7 -67 -21 -34 -37 -43 -113 -63 -74 -18 -127 -97 -73
-107 11 -3 16 0 12 7 -5 8 11 11 51 10 32 -1 75 3 96 9 36 9 37 9 31 -10 -5
-18 -3 -20 21 -14 15 4 38 20 52 36 14 17 31 30 39 30 17 0 68 -75 60 -89 -3
-5 -9 -31 -12 -58 -3 -26 -7 -64 -9 -83 -3 -19 -7 -59 -10 -88 -3 -29 -13 -72
-22 -95 -9 -24 -16 -75 -17 -117 -1 -41 -4 -79 -8 -85 -3 -5 -11 -30 -18 -54
-14 -54 -55 -117 -80 -124 -10 -2 -21 -18 -24 -35 -10 -41 -62 -122 -80 -122
-8 0 -21 -6 -28 -13 -22 -22 -55 -37 -151 -68 -107 -34 -125 -35 -173 -9 -26
15 -45 19 -69 14 -35 -6 -123 26 -161 60 -48 43 -169 135 -172 131 -2 -2 4
-14 12 -27 9 -14 13 -28 9 -31 -3 -4 -1 -7 5 -7 7 0 12 -10 12 -23 0 -12 9
-28 20 -35 11 -7 20 -22 20 -35 0 -18 2 -19 10 -7 8 13 10 12 10 -3 0 -10 8
-21 18 -24 9 -4 29 -17 44 -29 74 -61 187 -109 401 -169 42 -13 57 -22 57 -35
0 -19 19 -30 50 -30 18 0 37 -22 39 -45 0 -5 12 -10 24 -11 36 -1 46 -11 52
-52 16 -91 34 -119 61 -92 16 16 56 -3 92 -41 57 -61 99 -164 136 -334 20 -88
45 -191 56 -230 12 -38 26 -87 32 -107 l10 -38 519 0 519 0 0 65 c0 37 -6 78
-14 93 -7 15 -17 43 -21 62 -8 37 -53 141 -65 150 -12 8 -160 231 -160 240 0
5 -3 10 -7 12 -9 4 -57 73 -81 117 -41 73 -182 194 -241 207 -14 3 -36 10 -49
15 -13 5 -34 9 -47 9 -13 0 -30 3 -39 6 -19 7 -21 50 -3 58 6 3 2 3 -9 1 -23
-6 -42 19 -24 30 17 10 12 45 -5 39 -8 -4 -15 -3 -15 0 0 4 12 11 28 17 25 10
26 12 10 23 -21 16 -23 35 -5 42 9 3 12 16 9 34 -2 17 -7 28 -11 26 -4 -3 -7
20 -7 50 -1 32 3 54 9 54 6 0 3 6 -8 13 -13 10 -15 16 -6 21 9 6 9 11 0 22 -6
8 -8 14 -4 14 4 0 2 7 -5 15 -10 12 -10 18 0 30 10 12 10 15 -4 15 -9 0 -16 7
-16 15 0 9 6 12 18 9 12 -4 13 -3 4 3 -7 6 -15 27 -18 49 -3 21 -9 41 -15 45
-12 7 -14 62 -4 103 6 23 4 32 -10 43 -18 12 -18 13 3 13 13 0 22 6 22 15 0 9
-6 12 -17 9 -17 -5 -17 -5 0 9 17 14 17 15 0 21 -14 6 -15 9 -4 15 11 7 11 9
0 14 -11 3 -11 8 -3 17 15 15 6 50 -12 50 -8 0 -14 8 -14 18 0 9 -3 27 -6 40
-4 13 -2 22 5 22 6 0 11 -9 11 -21 0 -11 5 -17 10 -14 11 7 14 84 4 109 -3 9
-14 16 -23 16 -14 0 -14 -2 -1 -10 13 -8 12 -10 -4 -10 -15 0 -17 7 -14 47 3
41 0 50 -28 77 -46 46 -59 54 -95 64 -22 5 -39 18 -47 36 -10 20 -19 25 -32
21 -24 -8 -60 11 -60 30 0 8 -8 15 -18 15 -15 0 -21 17 -36 108 -26 161 -52
289 -74 369 -15 52 -17 74 -9 82 8 8 7 11 -4 11 -22 0 -44 40 -28 54 7 7 10 7
6 0 -6 -11 60 -80 68 -72 8 8 -21 83 -31 83 -12 0 -64 40 -64 49 0 9 58 -2 79
-16 12 -7 24 -8 35 -1 15 8 14 12 -8 36 -38 41 -25 60 36 55 l50 -3 -26 20
c-15 11 -42 29 -60 40 -18 11 -58 36 -88 56 -30 20 -64 40 -76 43 -12 4 -22
11 -22 15 0 5 -15 11 -32 15 -26 5 -30 9 -18 16 13 8 13 10 -1 10 -9 0 -22 7
-29 15 -9 11 -34 15 -93 15 -75 0 -79 1 -61 15 18 15 17 16 -16 10 -33 -6 -34
-5 -16 10 19 14 17 15 -22 15 -23 0 -42 3 -42 8 0 6 -157 11 -163 5z m400
-1175 c-3 -8 -6 -5 -6 6 -1 11 2 17 5 13 3 -3 4 -12 1 -19z m-32 -28 c3 -5 1
-10 -4 -10 -6 0 -11 5 -11 10 0 6 2 10 4 10 3 0 8 -4 11 -10z"/>
<path d="M1430 2371 c-58 -29 -80 -45 -80 -58 0 -17 15 -16 53 4 25 14 59 17
159 18 125 0 155 9 92 28 -16 5 -62 8 -101 8 -44 -1 -73 3 -73 9 0 14 -9 12
-50 -9z"/>
<path d="M1961 2217 c-13 -16 -10 -78 4 -74 8 3 18 87 10 87 -1 0 -7 -6 -14
-13z"/>
<path d="M1471 2163 c-63 -33 -76 -53 -34 -53 44 0 72 11 67 25 -9 22 14 27
25 6 8 -14 8 -21 -2 -24 -11 -5 10 -8 93 -11 42 -2 90 14 90 30 0 6 -7 17 -15
24 -8 7 -13 15 -11 19 3 4 -32 8 -77 10 -74 2 -88 -1 -136 -26z m109 3 c0 -3
-4 -8 -10 -11 -5 -3 -10 -1 -10 4 0 6 5 11 10 11 6 0 10 -2 10 -4z m90 -16 c0
-5 -7 -10 -15 -10 -8 0 -15 5 -15 10 0 6 7 10 15 10 8 0 15 -4 15 -10z"/>
<path d="M2140 2167 c0 -15 74 -16 87 -3 4 5 1 7 -9 3 -9 -3 -31 -2 -47 3 -22
6 -31 5 -31 -3z"/>
<path d="M2108 2163 c7 -3 16 -2 19 1 4 3 -2 6 -13 5 -11 0 -14 -3 -6 -6z"/>
<path d="M990 2105 c0 -21 22 -65 33 -65 5 0 6 7 3 16 -4 9 -1 23 6 31 9 11 9
16 -3 24 -21 13 -39 11 -39 -6z"/>
<path d="M1986 2013 c12 -65 20 -87 32 -91 7 -2 16 6 20 18 l8 21 24 -20 c20
-16 23 -23 14 -38 -12 -20 -54 -31 -54 -14 0 20 -22 11 -61 -24 -34 -31 -46
-35 -92 -35 -51 0 -97 -19 -97 -41 0 -13 27 -11 53 5 38 24 67 29 67 12 0 -19
0 -19 105 -20 70 -1 80 -3 79 -18 -1 -10 2 -18 7 -18 5 0 12 8 16 18 3 9 12
24 19 32 7 8 16 31 22 50 7 29 5 40 -12 65 -11 17 -26 34 -33 38 -7 4 -34 28
-60 52 -27 24 -52 45 -56 45 -4 0 -5 -17 -1 -37z"/>
<path d="M1685 1847 c-19 -30 -39 -87 -32 -94 9 -8 27 7 27 24 0 8 11 29 25
45 24 28 26 48 5 48 -5 0 -16 -10 -25 -23z"/>
<path d="M2123 1766 c4 -9 2 -16 -3 -16 -5 0 -6 -7 -3 -17 5 -12 3 -14 -7 -8
-10 6 -12 4 -7 -8 5 -13 0 -17 -21 -17 -33 0 -135 -29 -142 -40 -9 -14 -50
-31 -60 -25 -5 3 -22 -1 -38 -9 -49 -25 -101 -30 -121 -12 -27 25 -43 0 -35
-53 7 -46 9 -47 31 -26 13 14 18 14 38 1 12 -8 34 -13 48 -12 15 2 24 -1 20
-6 -3 -6 4 -7 18 -2 13 4 31 8 39 9 8 1 23 5 32 9 9 4 22 5 28 1 5 -3 10 -3
10 2 0 4 18 8 39 8 l39 0 -16 -27 c-9 -15 -29 -32 -44 -37 -15 -6 -28 -14 -28
-20 0 -11 40 -27 55 -22 6 2 38 10 72 18 82 19 85 23 104 133 14 78 12 108 -9
148 -19 37 -51 60 -39 28z m-69 -132 c26 -10 18 -31 -16 -49 -21 -11 -64 -18
-115 -20 -45 -2 -87 -7 -94 -10 -10 -7 -28 10 -29 25 0 9 87 33 165 46 39 6
71 12 72 13 1 0 8 -2 17 -5z"/>
<path d="M2790 1654 c0 -8 5 -12 10 -9 6 3 10 10 10 16 0 5 -4 9 -10 9 -5 0
-10 -7 -10 -16z"/>
<path d="M2230 1488 c0 -9 5 -20 10 -23 13 -8 13 5 0 25 -8 13 -10 13 -10 -2z"/>
<path d="M1269 1383 c-6 -16 -17 -45 -24 -65 -22 -60 -96 -146 -151 -175 -27
-14 -65 -40 -84 -58 -71 -66 -397 -275 -430 -275 -25 0 -129 -81 -195 -151
-125 -134 -175 -280 -175 -516 l0 -143 1070 0 c589 0 1070 3 1070 8 0 10 -123
222 -172 296 -55 82 -69 112 -62 130 3 9 1 16 -5 16 -6 0 -11 8 -11 18 0 9
-22 46 -49 82 -27 36 -48 67 -46 68 8 9 -254 271 -350 349 -188 155 -301 286
-342 397 -20 53 -29 57 -44 19z"/>
</g>
</svg>
